<svg width="63" height="36" viewBox="0 0 63 36" fill="none" xmlns="http://www.w3.org/2000/svg">
<path d="M30.44 32.12C28.84 33.208 26.824 34.056 24.392 34.664C21.992 35.272 19.432 35.576 16.712 35.576C13.32 35.576 10.44 35.16 8.07201 34.328C5.70401 33.464 3.91201 32.28 2.69601 30.776C1.48001 29.24 0.872009 27.496 0.872009 25.544C0.872009 23.752 1.36801 22.168 2.36001 20.792C3.35201 19.416 4.71201 18.392 6.44001 17.72C5.12801 17.016 4.10401 16.056 3.36801 14.84C2.66401 13.624 2.31201 12.264 2.31201 10.76C2.31201 8.93597 2.87201 7.27197 3.99201 5.76797C5.11201 4.26397 6.80801 3.06397 9.08001 2.16797C11.352 1.27197 14.136 0.823975 17.432 0.823975C19.608 0.823975 21.736 1.04797 23.816 1.49597C25.896 1.91197 27.704 2.48797 29.24 3.22397L27.08 9.17597C24.136 7.79997 21.016 7.11197 17.72 7.11197C15.224 7.11197 13.336 7.49597 12.056 8.26397C10.808 8.99997 10.184 10.008 10.184 11.288C10.184 12.472 10.6 13.384 11.432 14.024C12.296 14.632 13.592 14.936 15.32 14.936H24.488V21.08H14.84C12.888 21.08 11.384 21.416 10.328 22.088C9.27201 22.76 8.74401 23.736 8.74401 25.016C8.74401 26.36 9.41601 27.416 10.76 28.184C12.136 28.92 14.232 29.288 17.048 29.288C19.032 29.288 21.016 29.032 23 28.52C24.984 27.976 26.664 27.224 28.04 26.264L30.44 32.12Z" fill="url(#paint0_linear)"/>
<path d="M59.4796 10.808C56.5996 9.14397 53.5116 8.07197 50.2156 7.59197V35H42.4396V7.59197C39.1436 8.07197 36.0396 9.14397 33.1276 10.808L30.4876 4.99998C32.7916 3.62397 35.2876 2.58397 37.9756 1.87997C40.6636 1.17597 43.4316 0.823975 46.2796 0.823975C49.1596 0.823975 51.9436 1.17597 54.6316 1.87997C57.3516 2.58397 59.8476 3.62397 62.1196 4.99998L59.4796 10.808Z" fill="url(#paint1_linear)"/>
<defs>
<linearGradient id="paint0_linear" x1="30.5" y1="-12" x2="30.5" y2="47" gradientUnits="userSpaceOnUse">
<stop stop-color="#94BE0D"/>
<stop offset="1" stop-color="#DED849"/>
</linearGradient>
<linearGradient id="paint1_linear" x1="30.5" y1="-12" x2="30.5" y2="47" gradientUnits="userSpaceOnUse">
<stop stop-color="#94BE0D"/>
<stop offset="1" stop-color="#DED849"/>
</linearGradient>
</defs>
</svg>
