<svg width="140" height="140" viewBox="0 0 140 140" fill="none" xmlns="http://www.w3.org/2000/svg">
<path d="M113.75 26.25V8.75H8.75V52.5H48.125V131.25H131.25V26.25H113.75ZM17.5 43.75V17.5H105V26.25H48.125V43.75H17.5ZM122.5 122.5H56.875V35H122.5V122.5Z" fill="#E4EBEE"/>
<path d="M65.625 48.125H74.375V56.875H65.625V48.125Z" fill="#E4EBEE"/>
<path d="M83.125 48.125H113.75V56.875H83.125V48.125Z" fill="#E4EBEE"/>
<path d="M65.625 74.375H74.375V83.125H65.625V74.375Z" fill="#E4EBEE"/>
<path d="M83.125 74.375H113.75V83.125H83.125V74.375Z" fill="#E4EBEE"/>
<path d="M65.625 100.625H74.375V109.375H65.625V100.625Z" fill="#E4EBEE"/>
<path d="M83.125 100.625H113.75V109.375H83.125V100.625Z" fill="#E4EBEE"/>
</svg>
