<svg width="82" height="56" viewBox="0 0 82 56" fill="none" xmlns="http://www.w3.org/2000/svg">
<g filter="url(#filter0_di)">
<path d="M40.44 42.12C38.84 43.208 36.824 44.056 34.392 44.664C31.992 45.272 29.432 45.576 26.712 45.576C23.32 45.576 20.44 45.16 18.072 44.328C15.704 43.464 13.912 42.28 12.696 40.776C11.48 39.24 10.872 37.496 10.872 35.544C10.872 33.752 11.368 32.168 12.36 30.792C13.352 29.416 14.712 28.392 16.44 27.72C15.128 27.016 14.104 26.056 13.368 24.84C12.664 23.624 12.312 22.264 12.312 20.76C12.312 18.936 12.872 17.272 13.992 15.768C15.112 14.264 16.808 13.064 19.08 12.168C21.352 11.272 24.136 10.824 27.432 10.824C29.608 10.824 31.736 11.048 33.816 11.496C35.896 11.912 37.704 12.488 39.24 13.224L37.08 19.176C34.136 17.8 31.016 17.112 27.72 17.112C25.224 17.112 23.336 17.496 22.056 18.264C20.808 19 20.184 20.008 20.184 21.288C20.184 22.472 20.6 23.384 21.432 24.024C22.296 24.632 23.592 24.936 25.32 24.936H34.488V31.08H24.84C22.888 31.08 21.384 31.416 20.328 32.088C19.272 32.76 18.744 33.736 18.744 35.016C18.744 36.36 19.416 37.416 20.76 38.184C22.136 38.92 24.232 39.288 27.048 39.288C29.032 39.288 31.016 39.032 33 38.52C34.984 37.976 36.664 37.224 38.04 36.264L40.44 42.12Z" fill="url(#paint0_linear)"/>
<path d="M69.1984 20.808C66.3184 19.144 63.2304 18.072 59.9344 17.592V45H52.1584V17.592C48.8624 18.072 45.7584 19.144 42.8464 20.808L40.2064 15C42.5104 13.624 45.0064 12.584 47.6944 11.88C50.3824 11.176 53.1504 10.824 55.9984 10.824C58.8784 10.824 61.6624 11.176 64.3504 11.88C67.0704 12.584 69.5664 13.624 71.8384 15L69.1984 20.808Z" fill="url(#paint1_linear)"/>
</g>
<defs>
<filter id="filter0_di" x="0.872009" y="0.823997" width="80.9664" height="54.752" filterUnits="userSpaceOnUse" color-interpolation-filters="sRGB">
<feFlood flood-opacity="0" result="BackgroundImageFix"/>
<feColorMatrix in="SourceAlpha" type="matrix" values="0 0 0 0 0 0 0 0 0 0 0 0 0 0 0 0 0 0 127 0"/>
<feOffset/>
<feGaussianBlur stdDeviation="5"/>
<feColorMatrix type="matrix" values="0 0 0 0 0.0705882 0 0 0 0 0.0784314 0 0 0 0 0.105882 0 0 0 1 0"/>
<feBlend mode="normal" in2="BackgroundImageFix" result="effect1_dropShadow"/>
<feBlend mode="normal" in="SourceGraphic" in2="effect1_dropShadow" result="shape"/>
<feColorMatrix in="SourceAlpha" type="matrix" values="0 0 0 0 0 0 0 0 0 0 0 0 0 0 0 0 0 0 127 0" result="hardAlpha"/>
<feOffset dx="3" dy="1"/>
<feGaussianBlur stdDeviation="1.5"/>
<feComposite in2="hardAlpha" operator="arithmetic" k2="-1" k3="1"/>
<feColorMatrix type="matrix" values="0 0 0 0 0.894444 0 0 0 0 0.921667 0 0 0 0 0.933333 0 0 0 0.77 0"/>
<feBlend mode="normal" in2="shape" result="effect2_innerShadow"/>
</filter>
<linearGradient id="paint0_linear" x1="-0.5" y1="27" x2="83.5" y2="27" gradientUnits="userSpaceOnUse">
<stop offset="0.0227288" stop-color="#94BE0D"/>
<stop offset="1" stop-color="#DED849"/>
</linearGradient>
<linearGradient id="paint1_linear" x1="-0.5" y1="27" x2="83.5" y2="27" gradientUnits="userSpaceOnUse">
<stop offset="0.0227288" stop-color="#94BE0D"/>
<stop offset="1" stop-color="#DED849"/>
</linearGradient>
</defs>
</svg>
