<svg width="31" height="50" viewBox="0 0 31 50"  xmlns="http://www.w3.org/2000/svg">
<path d="M30.75 1.62515C30.75 1.26047 30.6051 0.910738 30.3473 0.652875C30.0894 0.395013 29.7397 0.250147 29.375 0.250147H22.5C19.0381 0.0776969 15.6486 1.28247 13.0722 3.60124C10.4958 5.92001 8.94191 9.16426 8.75 12.6251V20.0501H1.875C1.51033 20.0501 1.16059 20.195 0.902728 20.4529C0.644866 20.7107 0.5 21.0605 0.5 21.4251V28.5751C0.5 28.9398 0.644866 29.2896 0.902728 29.5474C1.16059 29.8053 1.51033 29.9501 1.875 29.9501H8.75V48.3751C8.75 48.7398 8.89486 49.0896 9.15273 49.3474C9.41059 49.6053 9.76033 49.7501 10.125 49.7501H18.375C18.7397 49.7501 19.0894 49.6053 19.3473 49.3474C19.6051 49.0896 19.75 48.7398 19.75 48.3751V29.9501H26.955C27.2608 29.9545 27.5593 29.8569 27.8033 29.6726C28.0474 29.4883 28.223 29.2279 28.3025 28.9326L30.2825 21.7826C30.3372 21.5795 30.3446 21.3665 30.304 21.16C30.2634 20.9536 30.176 20.7592 30.0485 20.5918C29.921 20.4245 29.7568 20.2886 29.5685 20.1947C29.3802 20.1008 29.1729 20.0513 28.9625 20.0501H19.75V12.6251C19.8184 11.9445 20.1381 11.3137 20.6466 10.8561C21.1551 10.3984 21.8159 10.1467 22.5 10.1501H29.375C29.7397 10.1501 30.0894 10.0053 30.3473 9.74742C30.6051 9.48956 30.75 9.13982 30.75 8.77515V1.62515Z" fill="#E4EBEE"/>
</svg>
