<svg width="52" height="52" viewBox="0 0 52 52" fill="none" xmlns="http://www.w3.org/2000/svg">
<path d="M26 12.7813C18.6846 12.7813 12.7807 18.6852 12.7807 26.0006C12.7807 33.3161 18.6846 39.22 26 39.22C33.3155 39.22 39.2194 33.3161 39.2194 26.0006C39.2194 18.6852 33.3155 12.7813 26 12.7813ZM26 34.5922C21.2692 34.5922 17.4084 30.7315 17.4084 26.0006C17.4084 21.2698 21.2692 17.409 26 17.409C30.7309 17.409 34.5916 21.2698 34.5916 26.0006C34.5916 30.7315 30.7309 34.5922 26 34.5922ZM39.7608 9.15905C38.0528 9.15905 36.6735 10.5383 36.6735 12.2464C36.6735 13.9544 38.0528 15.3337 39.7608 15.3337C41.4688 15.3337 42.8481 13.9608 42.8481 12.2464C42.8486 11.8408 42.7691 11.4391 42.6141 11.0643C42.4591 10.6895 42.2318 10.3489 41.945 10.0622C41.6582 9.77538 41.3176 9.54799 40.9428 9.39302C40.568 9.23805 40.1664 9.15854 39.7608 9.15905V9.15905ZM51.7684 26.0006C51.7684 22.4428 51.8006 18.9172 51.6008 15.3659C51.401 11.2409 50.46 7.57994 47.4436 4.56354C44.4207 1.54069 40.7662 0.606116 36.6412 0.406312C33.0834 0.206507 29.5578 0.238734 26.0065 0.238734C22.4487 0.238734 18.9231 0.206507 15.3717 0.406312C11.2467 0.606116 7.58577 1.54713 4.56937 4.56354C1.54652 7.58639 0.611945 11.2409 0.41214 15.3659C0.212336 18.9237 0.244562 22.4493 0.244562 26.0006C0.244562 29.552 0.212336 33.084 0.41214 36.6354C0.611945 40.7604 1.55296 44.4213 4.56937 47.4378C7.59222 50.4606 11.2467 51.3952 15.3717 51.595C18.9295 51.7948 22.4551 51.7626 26.0065 51.7626C29.5643 51.7626 33.0899 51.7948 36.6412 51.595C40.7662 51.3952 44.4272 50.4542 47.4436 47.4378C50.4664 44.4149 51.401 40.7604 51.6008 36.6354C51.8071 33.084 51.7684 29.5585 51.7684 26.0006V26.0006ZM46.0965 41.1987C45.626 42.3717 45.0588 43.2483 44.15 44.1506C43.2412 45.0594 42.3711 45.6266 41.1981 46.0971C37.8078 47.4442 29.7577 47.1413 26 47.1413C22.2424 47.1413 14.1858 47.4442 10.7955 46.1036C9.62249 45.6331 8.74593 45.0659 7.84359 44.1571C6.9348 43.2483 6.36761 42.3782 5.8971 41.2051C4.55648 37.8085 4.85941 29.7583 4.85941 26.0006C4.85941 22.243 4.55648 14.1864 5.8971 10.7962C6.36761 9.62311 6.9348 8.74655 7.84359 7.8442C8.75238 6.94186 9.62249 6.36823 10.7955 5.89772C14.1858 4.55709 22.2424 4.86002 26 4.86002C29.7577 4.86002 37.8143 4.55709 41.2045 5.89772C42.3776 6.36823 43.2541 6.93541 44.1565 7.8442C45.0653 8.75299 45.6325 9.62311 46.103 10.7962C47.4436 14.1864 47.1407 22.243 47.1407 26.0006C47.1407 29.7583 47.4436 37.8085 46.0965 41.1987Z" fill="#E4EBEE"/>
</svg>
