<svg width="62" height="36" viewBox="0 0 62 36" fill="none" xmlns="http://www.w3.org/2000/svg">
<path d="M30.44 32.12C28.84 33.208 26.824 34.056 24.392 34.664C21.992 35.272 19.432 35.576 16.712 35.576C13.32 35.576 10.44 35.16 8.07201 34.328C5.70401 33.464 3.91201 32.28 2.69601 30.776C1.48001 29.24 0.872009 27.496 0.872009 25.544C0.872009 23.752 1.36801 22.168 2.36001 20.792C3.35201 19.416 4.71201 18.392 6.44001 17.72C5.12801 17.016 4.10401 16.056 3.36801 14.84C2.66401 13.624 2.31201 12.264 2.31201 10.76C2.31201 8.936 2.87201 7.272 3.99201 5.768C5.11201 4.264 6.80801 3.064 9.08001 2.168C11.352 1.272 14.136 0.823997 17.432 0.823997C19.608 0.823997 21.736 1.048 23.816 1.496C25.896 1.912 27.704 2.488 29.24 3.224L27.08 9.176C24.136 7.8 21.016 7.112 17.72 7.112C15.224 7.112 13.336 7.496 12.056 8.264C10.808 9 10.184 10.008 10.184 11.288C10.184 12.472 10.6 13.384 11.432 14.024C12.296 14.632 13.592 14.936 15.32 14.936H24.488V21.08H14.84C12.888 21.08 11.384 21.416 10.328 22.088C9.27201 22.76 8.74401 23.736 8.74401 25.016C8.74401 26.36 9.41601 27.416 10.76 28.184C12.136 28.92 14.232 29.288 17.048 29.288C19.032 29.288 21.016 29.032 23 28.52C24.984 27.976 26.664 27.224 28.04 26.264L30.44 32.12Z" fill="url(#paint0_linear)"/>
<path d="M59.1984 10.808C56.3184 9.144 53.2304 8.072 49.9344 7.592V35H42.1584V7.592C38.8624 8.072 35.7584 9.144 32.8464 10.808L30.2064 5C32.5104 3.624 35.0064 2.584 37.6944 1.88C40.3824 1.176 43.1504 0.823997 45.9984 0.823997C48.8784 0.823997 51.6624 1.176 54.3504 1.88C57.0704 2.584 59.5664 3.624 61.8384 5L59.1984 10.808Z" fill="url(#paint1_linear)"/>
<defs>
<linearGradient id="paint0_linear" x1="-10.5" y1="17" x2="73.5" y2="17" gradientUnits="userSpaceOnUse">
<stop offset="0.0227288" stop-color="#94BE0D"/>
<stop offset="1" stop-color="#DED849"/>
</linearGradient>
<linearGradient id="paint1_linear" x1="-10.5" y1="17" x2="73.5" y2="17" gradientUnits="userSpaceOnUse">
<stop offset="0.0227288" stop-color="#94BE0D"/>
<stop offset="1" stop-color="#DED849"/>
</linearGradient>
</defs>
</svg>
