<svg width="140" height="120" viewBox="0 0 140 120" fill="none" xmlns="http://www.w3.org/2000/svg">
<path d="M130 30H100V10C100 7.34784 98.9464 4.8043 97.0711 2.92893C95.1957 1.05357 92.6522 0 90 0H50C47.3478 0 44.8043 1.05357 42.9289 2.92893C41.0536 4.8043 40 7.34784 40 10V30H10C7.34784 30 4.8043 31.0536 2.92893 32.9289C1.05357 34.8043 0 37.3478 0 40V110C0 112.652 1.05357 115.196 2.92893 117.071C4.8043 118.946 7.34784 120 10 120H130C132.652 120 135.196 118.946 137.071 117.071C138.946 115.196 140 112.652 140 110V40C140 37.3478 138.946 34.8043 137.071 32.9289C135.196 31.0536 132.652 30 130 30ZM50 10H90V30H50V10ZM10 110V40H130V110H10Z" fill="#E4EBEE"/>
</svg>
