<svg width="66" height="38" viewBox="0 0 66 38"  xmlns="http://www.w3.org/2000/svg">
<path fill-rule="evenodd" clip-rule="evenodd" d="M58.7466 26.5838C58.7466 26.5838 64.0827 31.8539 65.4027 34.2926C65.4284 34.3278 65.4484 34.3667 65.4621 34.4081C66 35.309 66.132 36.0152 65.868 36.5366C65.4225 37.3979 63.9144 37.8302 63.4029 37.8665H53.9715C53.3148 37.8665 51.9486 37.6949 50.2854 36.5465C49.0149 35.6588 47.751 34.1969 46.5267 32.768C44.6985 30.6461 43.1178 28.8047 41.5173 28.8047C41.3151 28.8042 41.1144 28.8377 40.9233 28.9037C39.7122 29.2865 38.1744 31.0124 38.1744 35.6093C38.1744 37.0481 37.0392 37.8665 36.2439 37.8665H31.9242C30.4524 37.8665 22.7898 37.3517 15.9951 30.1874C7.66919 21.416 0.191392 3.82038 0.118792 3.66528C-0.346508 2.52678 0.630292 1.90638 1.68629 1.90638H11.2101C12.4872 1.90638 12.903 2.67858 13.1934 3.37158C13.53 4.16688 14.7774 7.34808 16.8234 10.922C20.1366 16.7366 22.1727 19.1027 23.7996 19.1027C24.1052 19.1036 24.4057 19.0239 24.6708 18.8717C26.796 17.7035 26.4 10.1135 26.301 8.54928C26.301 8.24568 26.2977 5.16018 25.2087 3.66858C24.4299 2.59938 23.1033 2.18358 22.3014 2.03178C22.5159 1.72158 22.9713 1.24638 23.5554 0.965877C25.0107 0.239877 27.6408 0.134277 30.2511 0.134277H31.6998C34.5312 0.173877 35.2638 0.355377 36.2934 0.616077C38.3658 1.11108 38.4054 2.45418 38.2239 7.02798C38.1711 8.33478 38.115 9.80658 38.115 11.5391C38.115 11.9087 38.0985 12.3212 38.0985 12.7403C38.0358 15.0866 37.9533 17.7299 39.6099 18.8156C39.8248 18.9494 40.0729 19.0203 40.326 19.0202C40.9002 19.0202 42.6195 19.0202 47.2824 11.0177C49.3284 7.48338 50.9124 3.31548 51.0213 3.00198C51.1137 2.82708 51.3909 2.33538 51.7275 2.13738C51.9669 2.00998 52.2351 1.94634 52.5063 1.95258H63.7098C64.9308 1.95258 65.7591 2.13738 65.9208 2.59938C66.1914 3.34848 65.868 5.63538 60.753 12.5522C59.8917 13.7039 59.136 14.7005 58.4727 15.5717C53.8362 21.6569 53.8362 21.9638 58.7466 26.5838V26.5838Z" fill="#E4EBEE"/>
</svg>
